<?xml version="1.0" encoding="UTF-8"?>
<svg version="1.1" xmlns="http://www.w3.org/2000/svg" width="1254" height="289">
<path d="M0 0 C83.16 0 166.32 0 252 0 C252 7.92 252 15.84 252 24 C475.41 24 698.82 24 929 24 C929 16.08 929 8.16 929 0 C1036.25 0 1143.5 0 1254 0 C1254 95.37 1254 190.74 1254 289 C1200.54 289 1147.08 289 1092 289 C1092 285.7 1092 282.4 1092 279 C803.91 279 515.82 279 219 279 C219 282.3 219 285.6 219 289 C146.73 289 74.46 289 0 289 C0 193.63 0 98.26 0 0 Z " fill="#FDFDFD" transform="translate(0,0)"/>
<path d="M0 0 C1.010625 0.26683594 2.02125 0.53367187 3.0625 0.80859375 C15.66972331 4.58070179 27.25561807 11.18859081 37 20 C37.70640625 20.63679688 38.4128125 21.27359375 39.140625 21.9296875 C55.31352026 37.30011086 63.60342537 59.63752192 64.5726099 81.70366383 C64.67319163 86.07083935 64.66433521 90.43287245 64.62890625 94.80078125 C64.62973832 96.70216508 64.63221036 98.6035488 64.63621521 100.50492859 C64.63903927 104.44190751 64.6246918 108.37830669 64.59692383 112.31518555 C64.56253858 117.34405444 64.56899275 122.37191002 64.5875864 127.40083027 C64.59816996 131.30692437 64.58921132 135.21278413 64.57420158 139.11885643 C64.56904982 140.97389212 64.56946472 142.82895255 64.57574654 144.68398476 C64.58122772 147.2694322 64.56074356 149.85343799 64.53344727 152.4387207 C64.54323608 153.56636086 64.54323608 153.56636086 64.55322266 154.71678162 C64.4561588 160.15320234 63.0916053 164.48548029 60 169 C55.21217781 172.81071562 51.29268668 174.38681409 45.125 174.2734375 C39.82236805 173.59111354 36.77976987 170.99970496 33.5625 166.875 C31.29374604 162.44368908 31.64854958 157.85196832 32 153 C31.00033203 153.85271484 31.00033203 153.85271484 29.98046875 154.72265625 C18.77913124 164.10671383 8.99840347 169.99399027 -5.11865234 173.52734375 C-6.63425981 173.90811407 -8.14111626 174.32362529 -9.64453125 174.75 C-30.95240212 180.12361367 -54.05748388 174.10934526 -72.625 163.375 C-94.21759936 149.3861749 -106.82809181 128.98060981 -112.6875 104.078125 C-115.13876709 91.48133578 -114.63890971 78.51947864 -112 66 C-111.77828125 64.9275 -111.5565625 63.855 -111.328125 62.75 C-106.02219238 41.12582178 -92.95884345 22.97952135 -74.29296875 10.9296875 C-65.62480304 5.85012183 -56.86955711 1.23165145 -47 -1 C-46.14921875 -1.20367187 -45.2984375 -1.40734375 -44.421875 -1.6171875 C-29.7588262 -4.60713879 -14.39815003 -3.84950539 0 0 Z " fill="#070A41" transform="translate(986,73)"/>
<path d="M0 0 C3.40134276 2.49431802 6.45912251 5.2176778 7.4558773 9.41225052 C7.63135954 11.69250566 7.6534634 13.92656145 7.61987305 16.21337891 C7.62714417 17.0728009 7.63441528 17.9322229 7.64190674 18.81768799 C7.66045727 21.64971455 7.64444074 24.48047331 7.62890625 27.3125 C7.63695273 29.29301066 7.6474745 31.27351268 7.66035461 33.2539978 C7.6888978 38.46745873 7.68948322 43.68052229 7.68249512 48.89404297 C7.67517506 57.21599336 7.70677282 65.53781433 7.74494362 73.8596611 C7.75371955 76.750988 7.74852056 79.64202995 7.74137878 82.53335571 C7.7485985 100.67166423 9.49744437 118.85305714 22.9765625 132.46484375 C33.54637473 141.98164837 45.59258262 145.43338966 59.64453125 144.8359375 C73.57215853 143.83731757 84.64133209 139.47491941 94.3671875 129.0859375 C102.71129152 118.54728588 105.14246142 106.459801 105.1340332 93.34790039 C105.13750763 92.46240005 105.14098206 91.57689972 105.14456177 90.66456604 C105.15188198 88.75215843 105.15724713 86.83974252 105.16085243 84.9273243 C105.16805846 81.89585218 105.18375436 78.86453815 105.20219421 75.83311462 C105.25447974 67.21762205 105.30264584 58.60222024 105.31811523 49.98657227 C105.32821383 44.70690323 105.35757905 39.4276392 105.39943504 34.14813042 C105.41171557 32.14240015 105.41687171 30.13661264 105.41463661 28.13084602 C105.41227529 25.32124893 105.43451072 22.51280936 105.4621582 19.70336914 C105.45555679 18.88286072 105.44895538 18.06235229 105.44215393 17.21697998 C105.53271617 11.5876735 106.74894209 7.12918019 109.9921875 2.4609375 C114.71816758 -1.30055685 118.69933166 -2.95812548 124.796875 -2.890625 C129.71946402 -2.10231003 133.63917387 0.97698707 136.9296875 4.5859375 C139.386803 8.92202368 139.1467574 13.14656639 139.15332031 17.97705078 C139.15828522 18.84751038 139.16325012 19.71796997 139.16836548 20.61480713 C139.18300151 23.50362946 139.18979637 26.39239662 139.1953125 29.28125 C139.20106881 31.29889934 139.20682648 33.31654867 139.21258545 35.334198 C139.22310366 39.57615411 139.22893897 43.81809127 139.23242188 48.06005859 C139.23786661 53.45155468 139.26180396 58.84279307 139.29039383 64.23420906 C139.3091912 68.41084474 139.31423511 72.58742094 139.31575775 76.76409531 C139.31875341 78.74847679 139.32667517 80.73285803 139.33994293 82.71719742 C139.49461138 107.65839723 135.87586005 130.96099337 118.9921875 150.4609375 C118.02539062 151.58822266 118.02539062 151.58822266 117.0390625 152.73828125 C105.15720371 165.61029494 85.74506699 174.30666139 68.37646484 175.7644043 C64.49307037 175.89827115 60.62774541 175.9289106 56.7421875 175.8984375 C56.05865204 175.89473145 55.37511658 175.89102539 54.67086792 175.88720703 C32.17237546 175.7135116 13.31960217 169.17584188 -3.109375 153.44921875 C-11.18620513 145.01376488 -16.4307973 134.77943875 -20.3828125 123.8984375 C-20.6214502 123.25132812 -20.86008789 122.60421875 -21.10595703 121.9375 C-25.63352164 108.65926279 -25.31959228 94.89805684 -25.30859375 81.05859375 C-25.31248817 79.00646377 -25.31682436 76.95433459 -25.32157898 74.90220642 C-25.3289965 70.62675343 -25.32878014 66.35138311 -25.32348633 62.07592773 C-25.31766201 56.60290508 -25.3347155 51.13021759 -25.357831 45.6572504 C-25.37256178 41.43045584 -25.37344154 37.20374249 -25.37032127 32.9769268 C-25.37083364 30.95834114 -25.37605552 28.93975083 -25.38613319 26.92119026 C-25.39848338 24.10487013 -25.39171717 21.2892101 -25.38012695 18.47290039 C-25.38777069 17.64527695 -25.39541443 16.8176535 -25.40328979 15.96495056 C-25.35254174 10.37975026 -24.41261536 6.09745314 -20.5078125 1.81640625 C-13.59973049 -3.56254302 -7.7358925 -3.75559927 0 0 Z " fill="#060940" transform="translate(572.0078125,73.5390625)"/>
<path d="M0 0 C6.16318556 4.99819317 8.7370421 12.3583913 11.609375 19.49609375 C16.48362732 31.31201906 21.65256446 42.97666384 26.921875 54.62109375 C28.48090721 58.07011444 30.03938107 61.51938722 31.59765625 64.96875 C32.16052841 66.21430916 32.16052841 66.21430916 32.73477173 67.48503113 C37.16599319 77.29944611 41.50331593 87.15453577 45.81396484 97.02246094 C46.88559161 99.47553692 47.95989841 101.92742004 49.03515625 104.37890625 C52.62125092 112.55932096 56.18049846 120.74825558 59.609375 128.99609375 C60.26486328 130.57197266 60.26486328 130.57197266 60.93359375 132.1796875 C61.25972656 132.96472656 61.58585937 133.74976563 61.921875 134.55859375 C65.30896176 128.02110823 68.24787633 121.32508212 71.15161133 114.56069946 C72.58175749 111.22971882 74.01989512 107.90218808 75.45703125 104.57421875 C75.74736237 103.90139359 76.03769348 103.22856842 76.33682251 102.53535461 C79.17204134 95.96896247 82.04061407 89.41741075 84.921875 82.87109375 C85.3537915 81.88826416 85.78570801 80.90543457 86.23071289 79.89282227 C88.70257024 74.28144134 91.2214038 68.69340261 93.765625 63.11450195 C95.35890518 59.59253189 96.89160635 56.04575594 98.421875 52.49609375 C100.34674048 48.05261019 102.31872002 43.67325461 104.546875 39.37109375 C106.37843931 35.79716468 107.88013092 32.19164543 109.296875 28.43359375 C110.16889981 26.14079331 111.04413758 23.84921335 111.921875 21.55859375 C112.30448486 20.5540918 112.30448486 20.5540918 112.69482422 19.52929688 C118.98644977 3.26809612 118.98644977 3.26809612 126.921875 -1.44140625 C131.8030499 -3.06846455 135.66592513 -2.8528381 140.546875 -1.25390625 C144.60398304 0.92491103 147.83044906 3.37574187 149.921875 7.55859375 C150.95482147 16.66881273 148.99856927 23.13308708 144.921875 31.18359375 C143.81228993 33.477763 142.70292627 35.77203934 141.59375 38.06640625 C140.99209384 39.29096412 140.38986933 40.51524289 139.78710938 41.73925781 C137.85516996 45.67658186 135.98429445 49.64122987 134.125 53.61328125 C133.80319763 54.30064865 133.48139526 54.98801605 133.14984131 55.69621277 C132.490421 57.10526134 131.83114079 58.51437549 131.17199707 59.92355347 C129.49103673 63.51203347 127.80010293 67.09580179 126.109375 70.6796875 C125.76924377 71.40094315 125.42911255 72.12219879 125.07867432 72.86531067 C124.02650568 75.09645117 122.9741965 77.32752534 121.921875 79.55859375 C119.354675 85.00177086 116.78830456 90.4453371 114.22351074 95.88964844 C113.19961654 98.06222951 112.17454893 100.23425413 111.14941406 102.40625 C108.31283044 108.42291539 105.49804664 114.44444249 102.82128906 120.53442383 C82.23298452 166.86928621 82.23298452 166.86928621 69.609375 171.87109375 C61.39854398 173.40192665 54.95852258 173.34012074 47.921875 168.55859375 C42.54336998 164.03617333 39.26873182 159.21035698 36.3203125 152.890625 C35.7224015 151.65492264 35.7224015 151.65492264 35.1124115 150.39425659 C33.82617379 147.72650314 32.5612674 145.04926037 31.296875 142.37109375 C30.40239012 140.50378376 29.50679058 138.63700733 28.61010742 136.77075195 C26.02516819 131.37709319 23.46774971 125.97078596 20.921875 120.55859375 C20.59064636 119.85472534 20.25941772 119.15085693 19.91815186 118.42565918 C16.98009517 112.17471667 14.07695987 105.90813323 11.19140625 99.6328125 C7.32930858 91.24589033 3.37292593 82.90387974 -0.578125 74.55859375 C-5.88388343 63.3455459 -11.16696276 52.12264776 -16.390625 40.87109375 C-16.91140625 39.75025391 -17.4321875 38.62941406 -17.96875 37.47460938 C-18.91830631 35.42563309 -19.86407233 33.37489393 -20.80517578 31.32202148 C-21.62291468 29.54680349 -22.45358261 27.77745292 -23.30029297 26.01586914 C-26.26767355 19.71495137 -27.04289191 14.5307752 -26.078125 7.55859375 C-24.0788142 3.08013756 -21.47585517 0.49830482 -17.0625 -1.74609375 C-11.01044582 -3.86669541 -5.63013707 -2.70679667 0 0 Z " fill="#070A41" transform="translate(223.078125,74.44140625)"/>
<path d="M0 0 C13.31686724 10.34398862 20.89148252 23.42779686 23.1484375 40.12109375 C24.89231791 56.70472573 21.94086835 73.9806387 11.58984375 87.5625 C2.58783669 98.13076137 -10.16688936 106.99114553 -24.43725586 108.14550781 C-44.63416781 108.54977511 -59.78647105 105.27563119 -74.90234375 90.8359375 C-87.68272092 76.50463898 -90.61600289 58.95889597 -89.62548828 40.32373047 C-88.51444766 25.89826813 -81.46400172 15.02076509 -71.4453125 4.984375 C-70.88070312 4.40816406 -70.31609375 3.83195312 -69.734375 3.23828125 C-64.72290136 -1.46761473 -58.69119777 -4.27293704 -52.4453125 -7.015625 C-51.29289063 -7.53189453 -51.29289063 -7.53189453 -50.1171875 -8.05859375 C-33.55813839 -14.22481309 -14.09874662 -9.78963415 0 0 Z " fill="#FCFBFC" transform="translate(994.4453125,110.015625)"/>
<path d="M0 0 C5.71812796 2.68551057 8.56575181 6.21215972 11 12 C11.24678591 14.68863958 11.35296343 17.12781248 11.29296875 19.8046875 C11.28872391 20.5286673 11.28447906 21.25264709 11.28010559 21.99856567 C11.26342972 24.29110287 11.22580081 26.58273246 11.1875 28.875 C11.17243871 30.43748722 11.15875284 31.99998835 11.14648438 33.5625 C11.11356293 37.37534505 11.06186002 41.18751911 11 45 C12.04865234 44.97381592 13.09730469 44.94763184 14.17773438 44.9206543 C18.09873805 44.82959569 22.01964987 44.77255092 25.94140625 44.7253418 C27.63297281 44.7003234 29.32443264 44.6662971 31.015625 44.62280273 C47.98967994 44.19745053 47.98967994 44.19745053 53.65625 48.64868164 C57.27245276 52.28525182 59.21899553 55.23816088 59.625 60.375 C59.39041982 65.707188 56.78650313 69.37850503 53 73 C49.11978253 75.7058454 44.82964357 75.25303792 40.296875 75.1953125 C39.45908508 75.1924826 38.62129517 75.18965271 37.75811768 75.18673706 C35.08859837 75.17556349 32.4194175 75.15046421 29.75 75.125 C27.93750485 75.11496654 26.12500444 75.10584133 24.3125 75.09765625 C19.87487007 75.0756334 15.43749237 75.04112304 11 75 C11.06131899 87.10079016 11.13850308 99.20136656 11.23571491 111.30192471 C11.28036494 116.92123914 11.319633 122.54048196 11.34643555 128.15991211 C11.3725219 133.58708944 11.41296227 139.01399043 11.46318626 144.44099617 C11.4798189 146.50729995 11.49135554 148.57365149 11.49761391 150.64001274 C11.50729417 153.54342212 11.53540045 156.44613022 11.56762695 159.34936523 C11.56619186 160.19597717 11.56475677 161.04258911 11.5632782 161.91485596 C11.69014357 170.04295197 13.68598567 177.68063161 19 184 C25.67120091 190.12743174 32.98955653 189.64453671 41.625 189.5625 C57.20875083 189.46180976 57.20875083 189.46180976 62 194 C65.60057274 197.96063001 65.50330882 202.21495659 65.3515625 207.33984375 C64.71575446 212.15079127 62.50592304 214.79526157 58.8125 217.75 C46.41939724 223.25804567 27.80678634 223.40470728 15 219.3125 C13.30987075 218.59456899 11.63914751 217.82774226 10 217 C9.22398437 216.649375 8.44796875 216.29875 7.6484375 215.9375 C-5.14215761 209.60813335 -12.69695945 199.24092805 -18.08984375 186.40625 C-22.71244547 172.6074389 -22.27714965 157.63615004 -22.1953125 143.28515625 C-22.19157269 141.33361457 -22.18873031 139.38207098 -22.18673706 137.43052673 C-22.17917674 132.34582138 -22.15959549 127.26123408 -22.1373291 122.17657471 C-22.11670495 116.96734208 -22.10770026 111.75808999 -22.09765625 106.54882812 C-22.07634084 96.36583414 -22.04229918 86.18292697 -22 76 C-23.73636719 76.05220703 -23.73636719 76.05220703 -25.5078125 76.10546875 C-27.0468604 76.13362207 -28.58592411 76.16092056 -30.125 76.1875 C-30.88554688 76.21263672 -31.64609375 76.23777344 -32.4296875 76.26367188 C-38.25377427 76.33898334 -42.16584971 75.14602327 -46.8984375 71.5625 C-50.1703387 68.10017069 -51.48665149 65.35712805 -51.8125 60.5625 C-51.53365331 55.09861223 -49.50538932 52.27086578 -45.7265625 48.4609375 C-42.86996669 46.04381796 -41.09152307 45.87916758 -37.4296875 45.90234375 C-36.53378906 45.90556641 -35.63789062 45.90878906 -34.71484375 45.91210938 C-33.30912109 45.92467773 -33.30912109 45.92467773 -31.875 45.9375 C-30.45767578 45.94426758 -30.45767578 45.94426758 -29.01171875 45.95117188 C-26.67441613 45.96297643 -24.33723939 45.97944241 -22 46 C-22.01571045 45.00145996 -22.0314209 44.00291992 -22.04760742 42.97412109 C-22.10212619 39.25057113 -22.13642934 35.5270561 -22.16479492 31.80322266 C-22.17983176 30.19508928 -22.20026672 28.58699656 -22.22631836 26.97900391 C-22.26292822 24.66037936 -22.27977722 22.34229951 -22.29296875 20.0234375 C-22.30845261 19.31069672 -22.32393646 18.59795593 -22.33988953 17.86361694 C-22.34174236 12.30124227 -20.87355539 8.53634518 -17.59765625 4.1015625 C-12.39770966 -0.89991285 -6.95804995 -1.38422744 0 0 Z " fill="#080B42" transform="translate(789,26)"/>
<path d="M0 0 C3.23424469 3.23424469 5.14371826 6.16025272 5.5234375 10.7734375 C5.07851541 16.11250261 2.40830699 20.54232412 -1.2890625 24.3359375 C-4.95263044 26.12983882 -7.76987625 26.55266312 -11.82421875 26.42578125 C-12.88189453 26.40580078 -13.93957031 26.38582031 -15.02929688 26.36523438 C-17.21693054 26.30478829 -19.40444421 26.23980113 -21.59179688 26.16992188 C-35.7547368 25.92174951 -49.05010167 29.76738955 -59.66796875 39.51953125 C-72.63298839 54.04660145 -74.57747943 70.69485042 -74.56345749 89.26076126 C-74.56248311 92.11191845 -74.57553931 94.96270803 -74.59243774 97.81381226 C-74.6384498 105.9129562 -74.66332363 114.01205768 -74.66992188 122.11132812 C-74.67494663 127.08321667 -74.69923506 132.05471427 -74.73524857 137.02647018 C-74.74501398 138.912191 -74.74739639 140.79796577 -74.74207687 142.68370438 C-74.73497601 145.32292603 -74.75234665 147.96098573 -74.77490234 150.60009766 C-74.76672989 151.36913925 -74.75855743 152.13818085 -74.75013733 152.93052673 C-74.83327363 158.42576389 -76.16119856 162.77124049 -79.2890625 167.3359375 C-84.25858406 171.39268979 -88.35048957 171.9221132 -94.703125 171.65234375 C-98.19233663 171.22541604 -100.44497546 170.4169768 -103.2890625 168.3359375 C-107.20829957 163.25152184 -108.41088792 159.63030555 -108.44296265 153.29646301 C-108.45156311 152.03336304 -108.46016357 150.77026306 -108.46902466 149.46888733 C-108.4734598 148.06625407 -108.47775817 146.66362038 -108.48193359 145.26098633 C-108.48983611 143.7858562 -108.49810515 142.31072799 -108.50671387 140.83560181 C-108.53291944 135.9880762 -108.54824128 131.14054202 -108.5625 126.29296875 C-108.56786052 124.62308942 -108.57323803 122.95321014 -108.57863235 121.28333092 C-108.60026004 114.33561991 -108.61899563 107.38791121 -108.63025475 100.44017506 C-108.64648668 90.4898438 -108.67964712 80.53990348 -108.73665559 70.58971959 C-108.7753892 63.5900166 -108.79489154 56.59041802 -108.80017531 49.59061068 C-108.80382446 45.41178485 -108.81579862 41.23337612 -108.84827805 37.05466652 C-108.87841882 33.12043086 -108.88464952 29.18686335 -108.87289429 25.25253677 C-108.87267404 23.81263039 -108.88093859 22.37269247 -108.89854813 20.93289375 C-108.99211051 12.83907016 -108.87460676 6.56558895 -103.2890625 0.3359375 C-99.14704666 -3.55504708 -95.00085777 -4.04862058 -89.375 -3.93359375 C-84.82939743 -3.34624061 -81.70690402 -1.28706972 -78.77734375 2.06640625 C-75.37527159 6.95018319 -74.43909652 11.4436924 -74.2890625 17.3359375 C-73.86238281 16.85125 -73.43570313 16.3665625 -72.99609375 15.8671875 C-57.87758732 -0.34234517 -20.82841935 -15.14147892 0 0 Z " fill="#070941" transform="translate(512.2890625,74.6640625)"/>
<path d="M0 0 C3.5625 0.5625 3.5625 0.5625 6.5625 2.625 C8.5625 5.5625 8.5625 5.5625 8.37841797 8.77026367 C7.50972279 12.80779874 6.17396121 16.41939574 4.5078125 20.17578125 C4.20559784 20.87140671 3.90338318 21.56703217 3.5920105 22.28373718 C2.95573699 23.74188702 2.31513673 25.19815584 1.67041016 26.65258789 C0.68498592 28.88068447 -0.28128636 31.11642669 -1.24609375 33.35351562 C-1.86866357 34.77393248 -2.49232347 36.19387216 -3.1171875 37.61328125 C-3.4047995 38.28096024 -3.6924115 38.94863922 -3.98873901 39.6365509 C-5.49679647 43.00264772 -6.28996436 44.46414291 -9.4375 46.5625 C-12.78674871 46.98115609 -14.61998082 47.16904649 -17.375 45.125 C-20.51967244 37.54078999 -15.86485176 28.01319657 -13.30932617 20.71313477 C-12.62204731 18.74152959 -11.95782769 16.7631177 -11.29492188 14.78320312 C-10.85813275 13.51515506 -10.42002769 12.24755934 -9.98046875 10.98046875 C-9.58883545 9.84375732 -9.19720215 8.7070459 -8.79370117 7.53588867 C-6.71788953 2.98479776 -5.0033799 0.81873489 0 0 Z " fill="#8323FB" transform="translate(1041.4375,10.4375)"/>
<path d="M0 0 C3.0099077 2.29014716 4.69783903 3.79135614 5.625 7.5 C4.49530809 12.01876764 1.1640473 14.2452086 -2.59570312 16.68310547 C-5.7291584 18.55920321 -8.88772651 20.38223664 -12.0625 22.1875 C-13.15111328 22.81591797 -14.23972656 23.44433594 -15.36132812 24.09179688 C-28.40248854 31.59547994 -28.40248854 31.59547994 -34 31 C-35.875 29.9375 -35.875 29.9375 -37 28 C-37.875 24.8125 -37.875 24.8125 -37 21 C-34.27415511 18.29745293 -31.15265246 16.29410613 -27.92333984 14.23632812 C-25.70370241 12.80953909 -23.51808138 11.33709357 -21.33203125 9.859375 C-18.14392185 7.70904008 -14.95152342 5.56585518 -11.74609375 3.44140625 C-10.73567017 2.77153687 -10.73567017 2.77153687 -9.70483398 2.08813477 C-6.29166409 -0.09036992 -4.07447425 -0.47934991 0 0 Z " fill="#2E56FA" transform="translate(1084,45)"/>
<path d="M0 0 C0.97960693 0.00410889 1.95921387 0.00821777 2.96850586 0.01245117 C4.04938477 0.01438477 5.13026367 0.01631836 6.24389648 0.01831055 C7.94642578 0.03667969 7.94642578 0.03667969 9.68334961 0.05541992 C10.79129883 0.05606445 11.89924805 0.05670898 13.04077148 0.05737305 C29.11530897 0.14292647 29.11530897 0.14292647 34.18334961 2.36791992 C35.62084961 4.24291992 35.62084961 4.24291992 36.12084961 7.68041992 C35.62084961 11.24291992 35.62084961 11.24291992 34.24584961 13.68041992 C27.69425215 17.58018032 17.49557609 14.94968655 10.24584961 13.99291992 C9.27518555 13.88334961 8.30452148 13.7737793 7.30444336 13.66088867 C0.31323903 12.74479983 0.31323903 12.74479983 -3.01977539 10.32885742 C-4.87449096 7.48282835 -4.81301679 5.56922897 -4.37915039 2.24291992 C-2.37915039 0.24291992 -2.37915039 0.24291992 0 0 Z " fill="#0ABCBC" transform="translate(1061.379150390625,93.757080078125)"/>
<path d="M0 0 C0.66 0.66 1.32 1.32 2 2 C1.41992188 2.02578125 0.83984375 2.0515625 0.2421875 2.078125 C-5.16916494 2.47102848 -8.92573164 3.11974442 -13 7 C-14.33331914 9.92926175 -15.23920081 12.8767191 -16 16 C-16.33 16 -16.66 16 -17 16 C-17.33 45.37 -17.66 74.74 -18 105 C-18.33 105 -18.66 105 -19 105 C-19.06953435 92.9779675 -19.12282885 80.95598291 -19.15543652 68.93379021 C-19.17108717 63.35129565 -19.19231473 57.76893876 -19.22631836 52.18652344 C-19.25893284 46.79839857 -19.27685753 41.41040606 -19.28463173 36.02219009 C-19.29017145 33.96730593 -19.30098918 31.91242894 -19.31719017 29.85760117 C-19.33899198 26.97766254 -19.34196574 24.09826969 -19.34057617 21.21826172 C-19.351362 20.37021469 -19.36214783 19.52216766 -19.3732605 18.64842224 C-19.34378658 12.99688036 -18.45553557 8.69213665 -14.5 4.35546875 C-9.52650351 0.48287643 -6.28940616 -0.34305852 0 0 Z " fill="#17184B" transform="translate(566,71)"/>
<path d="M0 0 C1.26070312 -0.00128906 2.52140625 -0.00257813 3.8203125 -0.00390625 C5.13 -0.00003906 6.4396875 0.00382813 7.7890625 0.0078125 C9.09101562 0.00394531 10.39296875 0.00007812 11.734375 -0.00390625 C12.99765625 -0.00261719 14.2609375 -0.00132812 15.5625 0 C17.28218994 0.00169189 17.28218994 0.00169189 19.03662109 0.00341797 C22.55450149 0.13819292 25.93991023 0.57670515 29.4140625 1.1328125 C29.4140625 1.4628125 29.4140625 1.7928125 29.4140625 2.1328125 C25.33254494 3.10861691 21.51124816 3.26181506 17.3203125 3.265625 C16.31659607 3.26706009 16.31659607 3.26706009 15.29260254 3.26852417 C13.88403224 3.2692018 12.47545875 3.26737671 11.06689453 3.26318359 C8.92082654 3.25782938 6.7749678 3.2631427 4.62890625 3.26953125 C3.25520788 3.26887039 1.88150963 3.26758908 0.5078125 3.265625 C-0.73291016 3.26449707 -1.97363281 3.26336914 -3.25195312 3.26220703 C-6.16451606 3.14916819 -8.75884169 2.80871124 -11.5859375 2.1328125 C-11.5859375 1.8028125 -11.5859375 1.4728125 -11.5859375 1.1328125 C-7.66752103 0.21023934 -4.02125773 0.00396406 0 0 Z " fill="#242452" transform="translate(619.5859375,245.8671875)"/>
<path d="M0 0 C0.66 0.99 1.32 1.98 2 3 C1.50854492 5.14477539 1.50854492 5.14477539 0.48046875 7.59765625 C0.11759766 8.48130859 -0.24527344 9.36496094 -0.61914062 10.27539062 C-1.20985352 11.65500977 -1.20985352 11.65500977 -1.8125 13.0625 C-2.19470703 13.98611328 -2.57691406 14.90972656 -2.97070312 15.86132812 C-5.6311553 22.26231061 -5.6311553 22.26231061 -7 25 C-7.99 25 -8.98 25 -10 25 C-7.37589493 16.35588919 -3.68616238 8.23074615 0 0 Z " fill="#303364" transform="translate(341,82)"/>
<path d="M0 0 C2.375 2.625 2.375 2.625 4 5 C3.34 5.66 2.68 6.32 2 7 C1.21625 6.195625 0.4325 5.39125 -0.375 4.5625 C-4.52325866 0.51300941 -7.73757896 0.79971176 -13.2890625 0.68359375 C-14.51669815 0.6524221 -14.51669815 0.6524221 -15.76913452 0.62062073 C-18.38766966 0.55515188 -21.00630639 0.49625274 -23.625 0.4375 C-25.39844807 0.39431224 -27.17188581 0.35069786 -28.9453125 0.30664062 C-33.29677046 0.19947324 -37.64833077 0.09819831 -42 0 C-42 -0.33 -42 -0.66 -42 -1 C-36.9833177 -1.19309609 -31.96640148 -1.37168108 -26.94873047 -1.53710938 C-25.24351314 -1.59534104 -23.53842398 -1.65746654 -21.83349609 -1.72363281 C-19.37621412 -1.81830918 -16.9188046 -1.89875713 -14.4609375 -1.9765625 C-13.32620499 -2.02485703 -13.32620499 -2.02485703 -12.16854858 -2.0741272 C-7.68798507 -2.19960528 -4.11014086 -1.82868709 0 0 Z " fill="#0E1147" transform="translate(842,74)"/>
<path d="M0 0 C0.66 0 1.32 0 2 0 C1.67 12.87 1.34 25.74 1 39 C0.67 39 0.34 39 0 39 C-0.16743288 33.76743778 -0.328011 28.53472773 -0.48217773 23.30175781 C-0.5356202 21.52077543 -0.59095129 19.73984869 -0.64819336 17.95898438 C-0.73004181 15.40246583 -0.8051453 12.84582555 -0.87890625 10.2890625 C-0.90594131 9.49005524 -0.93297638 8.69104797 -0.96083069 7.86782837 C-1.11387171 2.22774341 -1.11387171 2.22774341 0 0 Z " fill="#12144B" transform="translate(769,33)"/>
<path d="M0 0 C0.7425 0.495 0.7425 0.495 1.5 1 C1.5 1.33 1.5 1.66 1.5 2 C-0.95779976 2.22126178 -3.41527648 2.42750395 -5.875 2.625 C-6.92300781 2.72167969 -6.92300781 2.72167969 -7.9921875 2.8203125 C-9.82369111 2.96119739 -11.66312748 2.98761659 -13.5 3 C-14.16 2.34 -14.82 1.68 -15.5 1 C-10.50367864 -1.49816068 -5.28145731 -2.11258292 0 0 Z " fill="#272755" transform="translate(427.5,72)"/>
<path d="M0 0 C0.66 0.66 1.32 1.32 2 2 C0.12175109 3.87824891 -3.03935276 3.39102397 -5.5625 3.5625 C-6.76003906 3.64628906 -7.95757813 3.73007813 -9.19140625 3.81640625 C-10.11824219 3.87699219 -11.04507813 3.93757813 -12 4 C-12.33 3.34 -12.66 2.68 -13 2 C-8.49016424 -0.25491788 -4.94576735 -0.32431261 0 0 Z " fill="#222357" transform="translate(699,71)"/>
<path d="M0 0 C-1.26467795 3.79403384 -2.61697513 4.06684293 -6 6 C-6.45375 6.5775 -6.9075 7.155 -7.375 7.75 C-9 9 -9 9 -12.6875 8.6875 C-13.780625 8.460625 -14.87375 8.23375 -16 8 C-13 6 -13 6 -9.5625 4.5625 C-6.42702303 3.1872908 -3.35233927 0 0 0 Z " fill="#E6E5ED" transform="translate(305,239)"/>
<path d="M0 0 C0.33 0.99 0.66 1.98 1 3 C-4.75 8 -4.75 8 -7 8 C-7.2475 8.639375 -7.495 9.27875 -7.75 9.9375 C-9 12 -9 12 -11.078125 12.62890625 C-12.02945313 12.81259766 -12.02945313 12.81259766 -13 13 C-9.0580583 8.11950075 -4.88049925 3.9419417 0 0 Z " fill="#1B1E4E" transform="translate(906,88)"/>
<path d="M0 0 C-1.5885342 4.28904235 -4.43127368 6.32345526 -8 9 C-8.66 9 -9.32 9 -10 9 C-8.5124715 4.98367305 -4.56813239 0 0 0 Z " fill="#141748" transform="translate(352,73)"/>
<path d="M0 0 C0.66 0 1.32 0 2 0 C2 2.31 2 4.62 2 7 C4.31 7.33 6.62 7.66 9 8 C9 8.66 9 9.32 9 10 C6.1875 10.25 6.1875 10.25 3 10 C1.125 8.375 1.125 8.375 0 6 C-0.1875 2.75 -0.1875 2.75 0 0 Z " fill="#892EF6" transform="translate(1023,47)"/>
<path d="M0 0 C3.80635497 3.20760251 7.54563567 6.40746109 11 10 C8.13144287 9.91563067 6.44317685 9.41307819 4.33203125 7.4453125 C0 2.48559976 0 2.48559976 0 0 Z " fill="#12134B" transform="translate(916,197)"/>
<path d="M0 0 C0.66 0.66 1.32 1.32 2 2 C1.11248047 2.09087891 1.11248047 2.09087891 0.20703125 2.18359375 C-3.90978208 2.62012371 -7.95544533 3.08671346 -12 4 C-12 3.34 -12 2.68 -12 2 C-7.88581814 0.00524516 -4.55244646 -0.34358086 0 0 Z " fill="#232353" transform="translate(566,71)"/>
<path d="M0 0 C0.33 0 0.66 0 1 0 C1 3.3 1 6.6 1 10 C1.99 10 2.98 10 4 10 C4.66 11.65 5.32 13.3 6 15 C3 15 3 15 1.32421875 13.359375 C-0.31289767 10.44250681 -0.30612308 8.57144618 -0.1875 5.25 C-0.16042969 4.26515625 -0.13335938 3.2803125 -0.10546875 2.265625 C-0.07066406 1.51796875 -0.03585937 0.7703125 0 0 Z " fill="#383A63" transform="translate(738,81)"/>
<path d="M0 0 C-0.56149357 3.25666272 -1.37229986 4.95623323 -4 7 C-6.1875 7.6875 -6.1875 7.6875 -8 8 C-6.48291727 4.46014029 -4.24676932 0 0 0 Z " fill="#1D1F4D" transform="translate(747,73)"/>
<path d="M0 0 C2.5 2.25 2.5 2.25 5 5 C5 6.32 5 7.64 5 9 C2.5 6.75 2.5 6.75 0 4 C0 2.68 0 1.36 0 0 Z " fill="#1B1D51" transform="translate(564,217)"/>
<path d="M0 0 C0.66 0.99 1.32 1.98 2 3 C-0.29166667 9.64583333 -0.29166667 9.64583333 -3 11 C-2.44894091 7.0507432 -1.61064629 3.65079826 0 0 Z " fill="#22244F" transform="translate(341,82)"/>
<path d="M0 0 C0.99 0 1.98 0 3 0 C2.1875 2.4375 2.1875 2.4375 1 5 C0.01 5.33 -0.98 5.66 -2 6 C-1.125 1.125 -1.125 1.125 0 0 Z " fill="#090B32" transform="translate(694,214)"/>
<path d="M0 0 C0.99 0.33 1.98 0.66 3 1 C1.35 2.98 -0.3 4.96 -2 7 C-2.99 6.34 -3.98 5.68 -5 5 C-3.35 3.35 -1.7 1.7 0 0 Z " fill="#11144B" transform="translate(667,202)"/>
<path d="M0 0 C0.66 0 1.32 0 2 0 C2 1.98 2 3.96 2 6 C1.67 6 1.34 6 1 6 C0.67 7.65 0.34 9.3 0 11 C-0.33 11 -0.66 11 -1 11 C-1.125 3.375 -1.125 3.375 0 0 Z " fill="#2C2F5B" transform="translate(874,139)"/>
<path d="M0 0 C0 0.33 0 0.66 0 1 C-4.51617599 1.07654536 -8.59085217 1.10228696 -13 0 C-13 -0.33 -13 -0.66 -13 -1 C-8.15507803 -2.51403812 -4.7408989 -1.36602172 0 0 Z " fill="#494872" transform="translate(621,248)"/>
<path d="M0 0 C0.66 0.66 1.32 1.32 2 2 C0.68 3.32 -0.64 4.64 -2 6 C-2.99 5.67 -3.98 5.34 -5 5 C-3.35 3.35 -1.7 1.7 0 0 Z " fill="#141850" transform="translate(449,82)"/>
<path d="M0 0 C0.66 0 1.32 0 2 0 C1.64950425 3.24208567 1.43778819 4.61527704 -1.0625 6.8125 C-1.701875 7.204375 -2.34125 7.59625 -3 8 C-1.125 2.25 -1.125 2.25 0 0 Z " fill="#C6C7D6" transform="translate(336,171)"/>
<path d="M0 0 C0.66 0 1.32 0 2 0 C1.34 1.98 0.68 3.96 0 6 C-0.99 6 -1.98 6 -3 6 C-1.125 1.125 -1.125 1.125 0 0 Z " fill="#1E2053" transform="translate(334,101)"/>
<path d="M0 0 C2.375 0.25 2.375 0.25 5 1 C6.3125 3.0625 6.3125 3.0625 7 5 C6.34 5.66 5.68 6.32 5 7 C4.54625 6.21625 4.0925 5.4325 3.625 4.625 C2.11571258 1.96301969 2.11571258 1.96301969 0 0 Z " fill="#1D1E53" transform="translate(428,75)"/>
</svg>
